# xmcd
#
# Track frame offsets:
#	150
#	17402
#	27969
#	44079
#	57923
#	73906
#	86039
#	104412
#	119112
#	134187
#	151934
#	166817
#
# Disc length: 2425 seconds
#
# Revision: 1
# Processed by: cddbd v1.5.2PL0 Copyright (c) Steve Scherf et al.
# Submitted via: EasyCDDAExtractor 12.0.1.1
#
DISCID=ad09770c
DTITLE=Pk and Dansefolket - I Kjempeslag
DYEAR=2004
DGENRE=Danseband
TTITLE0=Takk Gud for At Dere Finns
TTITLE1=Besten
TTITLE2=Når Barna Spør
TTITLE3=I Kjærlighet Te' De'
TTITLE4=I Kjempeslag
TTITLE5=Sei Det Igjen
TTITLE6=Vår Lille Venn
TTITLE7=Aksjer Og Børs
TTITLE8=Er Det Oss to Eller Fleir
TTITLE9=Ho Har Grunna Te' Ikkje Å Bli
TTITLE10=Du Gamle Mann
TTITLE11=I Berre Messingen
EXTD=
EXTT0=
EXTT1=
EXTT2=
EXTT3=
EXTT4=
EXTT5=
EXTT6=
EXTT7=
EXTT8=
EXTT9=
EXTT10=
EXTT11=
PLAYORDER=
